<?xml version="1.0" encoding="utf-8"?>
<!-- Generator: Adobe Illustrator 16.0.0, SVG Export Plug-In . SVG Version: 6.00 Build 0)  -->
<!DOCTYPE svg PUBLIC "-//W3C//DTD SVG 1.1//EN" "http://www.w3.org/Graphics/SVG/1.1/DTD/svg11.dtd">
<svg version="1.1" id="Layer_1" xmlns="http://www.w3.org/2000/svg" xmlns:xlink="http://www.w3.org/1999/xlink" x="0px" y="0px"
	 width="1024px" height="1024px" viewBox="0 0 1024 1024" enable-background="new 0 0 1024 1024" xml:space="preserve">
<g>
	<g>
		<path fill="#EF5451" d="M482.885,394.552c-1.998,18.618-16.779,33.904-35.333,36.409c-5.581,0.763-11.007,0.413-16.049-0.858
			c-10.243-2.566-18.962-9.004-24.58-17.599c-2.662-4.123-7.004-6.789-11.799-7.58c-0.949-0.128-1.902-0.224-2.883-0.224h-0.698
			c-5.516,0-10.595,2.505-13.891,6.663c-1.204,1.521-2.188,3.265-2.857,5.167c-2.602,7.55-6.214,14.558-10.718,20.901
			c0.096,0.031,0.22,0.065,0.316,0.065c0.444,0.125,0.919,0.189,1.393,0.222c0.382,0.029,0.795,0.063,1.208,0.063
			c0.888,0,1.775-0.096,2.664-0.285c11.93-2.665,25.088,1.391,33.367,12.274c4.25,5.547,6.439,12.208,6.594,18.934
			c0.193,7.546-2.185,15.128-7.072,21.248c-6.245,7.833-15.064,11.927-24.069,12.371c-8.947,0.475-18.049-2.696-24.9-9.549
			c-3.3-3.298-5.771-7.167-7.361-11.259l-0.027-0.03c-2.381-6.122-2.852-12.812-1.432-19.126c0.321-1.522,0.355-3.013,0.101-4.5
			c-0.031-0.288-0.062-0.54-0.127-0.795c-7.044,5.17-14.938,9.229-23.411,11.989c-5.01,1.65-8.78,5.52-10.467,10.306
			c-0.633,1.812-0.981,3.742-0.981,5.712c0,2.824,0.665,5.549,1.907,7.959c0.564,1.109,1.267,2.124,2.093,3.076
			c0.949,1.143,2.092,2.123,3.393,2.949c13.065,8.279,21.155,23.66,18.871,40.724c-1.204,8.724-5.134,16.586-10.938,22.738
			c-6.602,6.95-15.518,11.643-25.41,12.752c-25.021,2.79-46.177-16.713-46.177-41.199c0-3.237,0.383-6.409,1.11-9.451
			c2.475-10.754,9.166-19.853,18.172-25.592c3.426-2.161,5.775-5.555,6.791-9.422c0.408-1.458,0.601-2.98,0.601-4.534
			c0-3.619-1.142-7.075-3.14-9.896c-1.077-1.523-2.408-2.824-3.935-3.901c-1.33-0.953-2.787-1.681-4.377-2.221
			c-7.641-2.475-14.809-6.025-21.279-10.499c-0.316-0.189-0.637-0.378-0.918-0.603c-0.097,0.414-0.158,0.792-0.193,1.205
			c-0.16,1.269-0.093,2.54,0.224,3.806c2.694,11.989-1.394,25.25-12.308,33.526c-5.421,4.121-11.92,6.311-18.519,6.533
			c-7.676,0.285-15.479-2.127-21.697-7.135c-7.328-5.901-11.386-14.054-12.208-22.487c-0.925-9.422,2.25-19.188,9.481-26.42
			c4.152-4.158,9.134-6.944,14.402-8.407c5.201-1.458,10.716-1.587,15.984-0.411c1.397,0.317,2.82,0.347,4.184,0.158
			c0.224-0.031,0.413-0.062,0.635-0.097c-4.885-6.783-8.817-14.364-11.542-22.454c-1.62-4.85-5.426-8.465-10.054-10.084
			c-1.781-0.634-3.681-0.984-5.616-0.984h-0.732c-3.867,0-7.673,1.269-10.589,3.681c-1.301,1.014-2.413,2.251-3.3,3.678
			c-8.313,13.131-23.789,21.281-40.886,18.903c-8.432-1.11-16.108-4.917-22.135-10.433c-7.229-6.662-12.145-15.829-13.255-25.977
			c-2.698-24.994,16.809-46.084,41.229-46.084c3.361,0,6.633,0.415,9.771,1.175c10.559,2.536,19.567,9.134,25.244,18.076
			c0.892,1.397,1.968,2.599,3.206,3.585c2.981,2.473,6.818,3.804,10.75,3.804c3.585,0,6.978-1.138,9.8-3.136
			c2.509-1.777,4.538-4.314,5.676-7.358c0.127-0.287,0.223-0.604,0.318-0.922c2.602-8.277,6.438-16.049,11.325-23.025l1.426-1.998
			c-1.013-0.383-2.061-0.635-3.138-0.728c-0.477-0.066-0.953-0.097-1.461-0.097c-0.92,0-1.839,0.097-2.727,0.284
			c-11.861,2.443-24.801-1.681-32.955-12.433c-4.151-5.423-6.309-11.893-6.531-18.459c-0.317-7.706,2.092-15.506,7.104-21.756
			c6.122-7.581,14.654-11.702,23.436-12.272c9.136-0.634,18.46,2.536,25.47,9.547c3.774,3.775,6.437,8.277,7.993,13.035
			c1.775,5.456,2.092,11.259,0.947,16.838c-0.503,2.507-0.347,5.014,0.51,7.326l0.095,0.29c6.662-4.792,14.083-8.631,22.013-11.323
			c5.456-1.842,9.543-6.09,11.321-11.325c0.604-1.839,0.953-3.804,0.953-5.803c0-3.015-0.729-5.962-2.092-8.563
			c-0.478-0.921-1.047-1.777-1.717-2.57c-1.139-1.523-2.536-2.824-4.149-3.902c-12.784-8.401-20.65-23.659-18.332-40.499
			c1.171-8.53,5.04-16.303,10.686-22.33c6.631-7.135,15.699-11.956,25.752-13.035c24.962-2.696,46.083,16.779,46.083,41.201
			c0,3.613-0.44,7.133-1.332,10.496c-2.628,10.051-8.912,18.615-17.38,24.166c-1.837,1.207-3.39,2.731-4.625,4.504
			c-2.13,3.017-3.304,6.695-3.304,10.497v0.035c0,6.915,3.938,13.225,10.09,16.207c0.695,0.38,1.42,0.667,2.188,0.921
			c8.402,2.851,16.269,7.009,23.243,12.242c0-0.033,0.035-0.033,0.035-0.063c0.475-1.174,0.76-2.411,0.854-3.713
			c0.034-0.379,0.065-0.791,0.065-1.172c0-0.92-0.097-1.872-0.286-2.759c-2.223-10.499,0.729-21.885,8.913-30.036
			c6.183-6.216,14.208-9.42,22.29-9.607c9.835-0.288,19.797,3.835,26.618,12.336c4.596,5.74,7.004,12.78,7.133,19.853
			c0.161,7.2-2.03,14.399-6.532,20.362c-3.744,4.949-8.534,8.499-13.764,10.622c-6.152,2.536-12.942,3.14-19.379,1.78
			c-2.536-0.541-5.106-0.319-7.454,0.6c-0.128,0.034-0.254,0.063-0.382,0.126c5.106,7.074,9.136,14.941,11.862,23.406
			c1.775,5.425,5.994,9.55,11.197,11.292c1.806,0.602,3.709,0.919,5.677,0.919c2.949,0,5.836-0.729,8.341-2.029
			c1.078-0.571,2.097-1.236,3.046-2.092c1.267-1.017,2.378-2.253,3.295-3.68c7.388-11.354,20.207-18.84,34.794-18.84
			c11.162,0,21.282,4.408,28.701,11.545C479.304,368.545,484.375,380.975,482.885,394.552"/>
		<path fill="#FFFFFF" d="M298.633,349.966c0,9.819-7.959,17.778-17.778,17.778c-9.82,0-17.779-7.959-17.779-17.778
			c0-9.82,7.959-17.777,17.779-17.777C290.674,332.188,298.633,340.146,298.633,349.966"/>
		<path fill="#FFFFFF" d="M269.968,386.836c0,5.963-4.838,10.801-10.803,10.801c-5.964,0-10.798-4.838-10.798-10.801
			c0-5.966,4.834-10.802,10.798-10.802C265.13,376.035,269.968,380.871,269.968,386.836"/>
		<path fill="#FFFFFF" d="M248.367,359.185c0,5.091-4.13,9.218-9.219,9.218c-5.093,0-9.222-4.126-9.222-9.218
			c0-5.092,4.128-9.217,9.222-9.217C244.237,349.968,248.367,354.093,248.367,359.185"/>
		<path fill="#EF5451" d="M500.666,276.7c0,21.1-17.102,38.205-38.199,38.205c-21.105,0-38.208-17.105-38.208-38.205
			c0-21.099,17.103-38.206,38.208-38.206C483.564,238.494,500.666,255.601,500.666,276.7"/>
		<path fill="#EF5451" d="M424.259,226.436c0,12.655-10.259,22.912-22.917,22.912c-12.651,0-22.907-10.257-22.907-22.912
			c0-12.654,10.256-22.909,22.907-22.909C414,203.526,424.259,213.781,424.259,226.436"/>
		<path fill="#EF5451" d="M239.148,549.013c0,13.785-11.178,24.961-24.965,24.961c-13.785,0-24.963-11.176-24.963-24.961
			c0-13.787,11.178-24.964,24.963-24.964C227.971,524.049,239.148,535.226,239.148,549.013"/>
	</g>
	<g>
		<path fill="#414042" d="M776.468,698.649c0,13.02-11.85,23.574-26.478,23.574H329.681c-14.621,0-26.47-10.555-26.47-23.574
			V408.645c0-13.023,11.849-23.578,26.47-23.578H749.99c14.628,0,26.478,10.555,26.478,23.578V698.649z"/>
		<polyline fill="#414042" points="353.767,672.688 353.767,824.301 456.53,672.688 		"/>
	</g>
	<g>
		<path fill="#00A79D" d="M800.371,680.035c0,13.02-11.854,23.574-26.477,23.574h-420.31c-14.621,0-26.474-10.555-26.474-23.574
			V390.03c0-13.023,11.854-23.578,26.474-23.578h420.31c14.623,0,26.477,10.555,26.477,23.578V680.035z"/>
		<polyline fill="#00A79D" points="377.671,654.07 377.671,805.688 480.434,654.07 		"/>
	</g>
	<g>
		<path fill="#EF5451" d="M890.88,588.053c0,35.35-28.652,64.008-64.003,64.008c-35.348,0-64-28.658-64-64.008
			c0-35.347,28.652-64.004,64-64.004C862.228,524.049,890.88,552.706,890.88,588.053"/>
		<path fill="#EF5451" d="M816.591,721.219c0,21.197-17.185,38.383-38.383,38.383c-21.197,0-38.383-17.186-38.383-38.383
			c0-21.198,17.186-38.381,38.383-38.381C799.406,682.838,816.591,700.021,816.591,721.219"/>
		<path fill="#EF5451" d="M916.015,706.937c0,21.2-17.186,38.383-38.388,38.383c-21.197,0-38.383-17.183-38.383-38.383
			c0-21.198,17.186-38.387,38.383-38.387C898.829,668.55,916.015,685.738,916.015,706.937"/>
	</g>
	<g>
		<g>
			<path fill="#FFFFFF" d="M437.272,551.968c-12.016,0-24.788-6.576-29.847-18.084c-2.529-5.817-2.909-13.027-2.909-19.983V500.75
				c0-6.956,0.38-14.544,2.909-20.108c5.059-11.509,17.831-18.086,29.847-18.086c17.073,0,29.34,12.015,32.754,29.973h-18.97
				c-1.518-7.588-7.334-11.887-13.784-11.887c-5.06,0-8.601,2.275-10.751,4.931c-2.656,3.288-3.541,4.806-3.541,21.753
				s0.885,18.211,3.541,21.625c2.151,2.529,5.691,4.934,10.751,4.934c6.45,0,11.888-4.047,13.784-12.014h18.97
				C466.739,539.953,454.345,551.968,437.272,551.968z"/>
			<path fill="#FFFFFF" d="M541.384,517.443c-0.505,6.069-0.631,11.507-2.909,16.44c-5.312,11.382-17.579,18.084-29.72,18.084
				c-12.141,0-24.66-6.576-29.72-18.084c-2.402-5.691-2.907-13.153-2.907-19.983V500.75c0-6.956,0.378-14.67,2.907-20.108
				c5.187-11.509,17.579-18.086,29.72-18.086c12.141,0,24.662,6.577,29.72,18.086c2.531,5.563,3.036,13.152,3.036,20.108v12.142
				C541.511,514.534,541.511,516.052,541.384,517.443z M519.505,485.573c-2.149-2.656-5.689-4.931-10.75-4.931
				c-4.932,0-8.599,2.275-10.623,4.931c-2.656,3.288-3.667,4.806-3.667,21.753s1.011,18.338,3.667,21.625
				c2.024,2.529,5.691,4.934,10.623,4.934c5.061,0,8.601-2.404,10.75-4.934c2.655-3.413,3.542-4.678,3.542-21.625
				S522.16,488.861,519.505,485.573z"/>
			<path fill="#FFFFFF" d="M596.807,463.188h19.478l-29.467,88.022h-14.039l-29.467-88.022h19.476l16.947,55.14L596.807,463.188z"/>
			<path fill="#FFFFFF" d="M624.08,463.188h18.464v88.022H624.08V463.188z"/>
			<path fill="#FFFFFF" d="M721.941,516.684c-0.125,6.071-0.759,11.383-2.907,16.314c-5.061,11.383-17.579,18.212-29.72,18.212
				h-32.503v-88.022h32.122c12.395,0,25.04,6.577,30.101,18.086c2.529,5.563,3.033,12.52,3.033,18.97
				C722.067,513.776,722.067,515.292,721.941,516.684z M699.937,485.826c-2.024-2.656-5.944-5.185-11.003-5.185h-13.658v53.116
				h14.039c5.058,0,8.598-2.278,10.622-4.934c2.656-3.414,3.668-4.552,3.668-21.499S702.593,489.241,699.937,485.826z"/>
		</g>
		<g>
			<path fill="#FFFFFF" d="M447.379,571.332h9.069l-10.49,41.256h-6.996l-6.52-24.186l-6.52,24.186h-7.055l-10.492-41.256h9.071
				l5.333,23.234l6.462-23.234h6.343l6.52,23.234L447.379,571.332z"/>
			<path fill="#FFFFFF" d="M482.479,595.753h-12.862v16.835h-8.655v-41.256h8.655v16.538h12.862v-16.538h8.597v41.256h-8.597
				V595.753z"/>
			<path fill="#FFFFFF" d="M498.441,571.332h8.655v41.256h-8.655V571.332z"/>
			<path fill="#FFFFFF" d="M511.457,606.422l5.631-6.341c3.735,2.903,7.529,4.326,11.323,4.326c4.563,0,6.4-1.956,6.4-4.03
				c0-4.506-6.105-4.149-9.425-4.683c-6.401-1.009-11.262-4.922-11.262-12.093c0-7.41,5.394-12.567,14.106-12.567
				c5.217,0,9.604,1.72,14.582,4.98l-4.743,6.994c-3.852-2.431-6.875-3.498-10.134-3.498c-3.262,0-5.157,1.542-5.157,4.21
				c0,4.326,8.297,3.852,11.084,4.623c6.461,1.72,9.604,6.758,9.604,12.033c0,8.062-6.225,12.507-15.116,12.507
				C522.245,612.884,516.911,611.164,511.457,606.422z"/>
			<path fill="#FFFFFF" d="M565.231,597.532h-7.706v15.056h-8.655v-41.256h15.591c8.3,0,14.345,5.038,14.345,13.277
				c0,3.261-1.187,6.52-3.733,9.068C572.761,595.99,569.499,597.532,565.231,597.532z M557.525,579.511v9.841h7.469
				c2.905,0,5.217-1.897,5.217-4.92c0-3.318-1.956-4.921-5.454-4.921H557.525z"/>
			<path fill="#FFFFFF" d="M583.488,571.332h27.741v8.179h-19.087v8.359h16.301v7.883h-16.301v8.654h19.087v8.181h-27.741V571.332z"
				/>
			<path fill="#FFFFFF" d="M630.867,596.108h-5.454v16.479h-8.655v-41.256h16.659c4.563,0,8.415,1.481,11.083,5.334
				c1.363,1.897,2.193,4.21,2.193,6.817c0,4.979-2.607,9.188-7.113,11.32l9.425,17.784h-9.78L630.867,596.108z M633.356,579.215
				h-7.943v9.011h7.647c3.021,0,5.334-1.66,5.334-4.742c0-1.008-0.237-1.898-0.712-2.55
				C636.794,579.689,635.313,579.215,633.356,579.215z"/>
			<path fill="#FFFFFF" d="M653.344,571.332h27.741v8.179h-19.086v8.359h16.3v7.883h-16.3v8.654h19.086v8.181h-27.741V571.332z"/>
			<path fill="#FFFFFF" d="M700.723,596.108h-5.454v16.479h-8.654v-41.256h16.658c4.563,0,8.415,1.481,11.083,5.334
				c1.363,1.897,2.193,4.21,2.193,6.817c0,4.979-2.607,9.188-7.112,11.32l9.425,17.784h-9.781L700.723,596.108z M703.212,579.215
				h-7.943v9.011h7.647c3.022,0,5.334-1.66,5.334-4.742c0-1.008-0.237-1.898-0.712-2.55
				C706.649,579.689,705.168,579.215,703.212,579.215z"/>
		</g>
	</g>
</g>
<rect x="0.138" y="0.473" fill="none" width="1024" height="1024"/>
</svg>
